<?xml version="1.0" encoding="UTF-8"?> <svg xmlns="http://www.w3.org/2000/svg" version="1.1" viewBox="0 0 856 200"><defs><style> .cls-1 { fill: #fff; } </style></defs><g><g id="Layer_1"><path class="cls-1" d="M127.74,11.89c3.68,0,6.94,1.34,9.77,4.03,2.83,2.68,4.25,6.02,4.25,10v132.93c0,3.99-1.46,7.32-4.37,10-2.91,2.68-6.29,4.03-10.12,4.03-4.29,0-7.74-1.34-10.35-4.03-2.61-2.68-3.91-6.01-3.91-10V25.92c0-3.99,1.38-7.32,4.14-10,2.76-2.68,6.28-4.03,10.58-4.03ZM127.05,78.82h102.57v26.45h-102.57v-26.45ZM229.61,11.89c4.29,0,7.74,1.34,10.35,4.03,2.61,2.68,3.91,6.02,3.91,10v132.93c0,3.99-1.34,7.32-4.02,10-2.68,2.68-6.25,4.03-10.69,4.03-3.68,0-6.94-1.34-9.77-4.03-2.84-2.68-4.25-6.01-4.25-10V25.92c0-3.99,1.46-7.32,4.37-10,2.91-2.68,6.28-4.03,10.12-4.03Z"></path><path class="cls-1" d="M364.38,47.54c3.99,0,7.28,1.3,9.89,3.91,2.61,2.61,3.91,5.98,3.91,10.12v97.28c0,3.99-1.3,7.32-3.91,10-2.61,2.68-5.9,4.03-9.89,4.03s-7.28-1.34-9.89-4.03c-2.61-2.68-3.91-6.01-3.91-10v-11.27l5.06,2.07c0,1.99-1.07,4.41-3.22,7.24-2.15,2.84-5.06,5.64-8.74,8.39-3.68,2.76-8.01,5.1-12.99,7.01-4.98,1.92-10.39,2.88-16.21,2.88-10.58,0-20.16-2.72-28.75-8.16-8.59-5.44-15.37-12.95-20.35-22.54-4.98-9.58-7.47-20.58-7.47-33s2.49-23.65,7.47-33.23c4.98-9.58,11.69-17.09,20.12-22.54,8.43-5.44,17.78-8.16,28.06-8.16,6.59,0,12.65,1,18.17,2.99,5.52,1.99,10.31,4.52,14.37,7.59,4.06,3.07,7.2,6.17,9.43,9.31,2.22,3.14,3.33,5.79,3.33,7.93l-8.28,2.99v-16.79c0-3.98,1.3-7.32,3.91-10,2.61-2.68,5.9-4.02,9.89-4.02ZM317.92,149.88c6.75,0,12.65-1.69,17.71-5.06,5.06-3.37,9-7.97,11.84-13.8,2.84-5.82,4.25-12.34,4.25-19.55s-1.42-13.95-4.25-19.78c-2.84-5.82-6.78-10.42-11.84-13.8-5.06-3.37-10.96-5.06-17.71-5.06s-12.42,1.69-17.48,5.06c-5.06,3.37-9.01,7.97-11.84,13.8-2.84,5.83-4.26,12.42-4.26,19.78s1.42,13.72,4.26,19.55c2.83,5.83,6.78,10.43,11.84,13.8,5.06,3.37,10.88,5.06,17.48,5.06Z"></path><path class="cls-1" d="M460.28,47.54c12.26,0,21.31,2.95,27.14,8.85,5.82,5.9,9.66,13.53,11.5,22.88l-3.91-2.07,1.84-3.68c1.84-3.53,4.68-7.32,8.51-11.38,3.83-4.06,8.47-7.51,13.91-10.35,5.44-2.84,11.53-4.25,18.28-4.25,11.04,0,19.43,2.38,25.18,7.13,5.75,4.75,9.69,11.08,11.84,18.97,2.14,7.9,3.22,16.67,3.22,26.33v58.87c0,3.99-1.3,7.32-3.91,10-2.61,2.68-5.9,4.03-9.89,4.03s-7.28-1.34-9.89-4.03c-2.61-2.68-3.91-6.01-3.91-10v-58.87c0-5.06-.61-9.62-1.84-13.68-1.23-4.06-3.45-7.32-6.67-9.77-3.22-2.45-7.82-3.68-13.8-3.68s-10.81,1.23-14.95,3.68c-4.14,2.45-7.24,5.71-9.31,9.77-2.07,4.06-3.1,8.62-3.1,13.68v58.87c0,3.99-1.3,7.32-3.91,10-2.61,2.68-5.9,4.03-9.89,4.03s-7.28-1.34-9.89-4.03c-2.61-2.68-3.91-6.01-3.91-10v-58.87c0-5.06-.61-9.62-1.84-13.68-1.23-4.06-3.45-7.32-6.67-9.77-3.22-2.45-7.82-3.68-13.8-3.68s-10.81,1.23-14.95,3.68c-4.14,2.45-7.24,5.71-9.31,9.77-2.07,4.06-3.11,8.62-3.11,13.68v58.87c0,3.99-1.3,7.32-3.91,10-2.61,2.68-5.9,4.03-9.89,4.03s-7.28-1.34-9.89-4.03c-2.61-2.68-3.91-6.01-3.91-10V63.87c0-3.99,1.3-7.32,3.91-10,2.61-2.68,5.9-4.03,9.89-4.03s7.28,1.34,9.89,4.03c2.61,2.68,3.91,6.02,3.91,10v9.89l-3.45-.69c1.38-2.61,3.29-5.4,5.75-8.39,2.45-2.99,5.44-5.79,8.97-8.39,3.53-2.61,7.43-4.71,11.73-6.32,4.29-1.61,8.97-2.41,14.03-2.41Z"></path><path class="cls-1" d="M682.86,19.47c3.98,0,7.28,1.34,9.89,4.03,2.61,2.68,3.91,6.02,3.91,10v97.74c0,14.1-2.64,25.33-7.93,33.69-5.29,8.36-12.38,14.37-21.27,18.05-8.89,3.68-18.86,5.52-29.9,5.52-4.91,0-10.12-.38-15.64-1.15-5.52-.77-10.04-1.92-13.57-3.45-4.6-1.99-7.78-4.49-9.54-7.48-1.76-2.99-2.11-6.17-1.04-9.54,1.38-4.45,3.6-7.47,6.67-9.08,3.07-1.61,6.29-1.8,9.66-.58,2.45.77,5.67,1.96,9.66,3.56,3.98,1.61,8.58,2.41,13.8,2.41,7.05,0,12.92-.96,17.59-2.87,4.68-1.92,8.2-5.14,10.58-9.66,2.38-4.52,3.56-10.69,3.56-18.51v-15.41l4.83,5.52c-2.61,5.06-5.86,9.24-9.77,12.53-3.91,3.3-8.55,5.79-13.91,7.48-5.37,1.68-11.5,2.53-18.4,2.53-8.13,0-15.22-1.88-21.27-5.64-6.06-3.75-10.77-8.97-14.14-15.64-3.37-6.67-5.06-14.29-5.06-22.88V33.5c0-3.99,1.3-7.32,3.91-10,2.61-2.68,5.9-4.03,9.89-4.03s7.28,1.34,9.89,4.03c2.61,2.68,3.91,6.02,3.91,10v58.87c0,9.97,2.19,16.98,6.55,21.04,4.37,4.06,10.46,6.09,18.28,6.09,5.36,0,9.89-1.04,13.57-3.1,3.68-2.07,6.51-5.14,8.51-9.2,1.99-4.06,2.99-9,2.99-14.83v-58.87c0-3.99,1.3-7.32,3.91-10,2.61-2.68,5.9-4.03,9.89-4.03Z"></path><path class="cls-1" d="M712.33,151.18c0-.83.27-1.55.82-2.17.55-.61,1.24-.92,2.07-.92.43,0,.88.1,1.35.3l28.8,12.31c.66.3,1.15.72,1.47,1.27.32.55.47,1.1.47,1.67-.03.53-.21,1.05-.52,1.54-.32.5-.77.88-1.37,1.15l-28.9,12.31c-.2.1-.41.17-.62.2-.22.03-.42.05-.62.05-.96,0-1.7-.35-2.22-1.05-.51-.7-.77-1.36-.77-1.99,0-1.26.65-2.18,1.94-2.74l25.66-10.91.05,1.74-25.71-10.01c-1.26-.56-1.89-1.48-1.89-2.74Z"></path><path class="cls-1" d="M734,120.19c2.72,0,5.12.61,7.2,1.82,2.08,1.21,3.7,2.84,4.86,4.88,1.16,2.04,1.74,4.33,1.74,6.85s-.58,4.81-1.74,6.85c-1.16,2.04-2.78,3.67-4.86,4.88-2.08,1.21-4.48,1.82-7.2,1.82s-5.12-.61-7.2-1.82c-2.08-1.21-3.7-2.84-4.88-4.88-1.18-2.04-1.77-4.33-1.77-6.85s.59-4.81,1.77-6.85c1.18-2.04,2.81-3.67,4.88-4.88,2.08-1.21,4.48-1.82,7.2-1.82ZM734,126.17c-1.69,0-3.16.34-4.41,1.02-1.25.68-2.22,1.59-2.91,2.74-.7,1.15-1.05,2.42-1.05,3.81s.35,2.67,1.05,3.81c.7,1.15,1.67,2.06,2.91,2.74,1.25.68,2.72,1.02,4.41,1.02,1.66,0,3.11-.34,4.36-1.02,1.25-.68,2.22-1.59,2.92-2.74.7-1.15,1.05-2.42,1.05-3.81s-.35-2.67-1.05-3.81c-.7-1.15-1.67-2.06-2.92-2.74-1.25-.68-2.7-1.02-4.36-1.02Z"></path><path class="cls-1" d="M743.17,119.2c-.46.33-1.06.48-1.79.45-.73-.03-1.36-.46-1.89-1.3-.33-.53-.47-1.1-.42-1.69.05-.6.36-1.18.92-1.74.96-.96,1.71-1.98,2.24-3.04.53-1.06.8-2.39.8-3.99-.03-.5-.11-1.05-.22-1.64-.12-.6-.38-1.12-.8-1.57-.41-.45-1.05-.67-1.92-.67-.73,0-1.31.25-1.74.75-.43.5-.8,1.15-1.1,1.97-.3.81-.58,1.72-.85,2.72-.3,1.03-.63,2.09-1,3.16-.36,1.08-.84,2.07-1.42,2.96-.58.9-1.35,1.63-2.32,2.19-.96.57-2.18.85-3.64.85-1.66,0-3.07-.46-4.24-1.39-1.16-.93-2.06-2.13-2.69-3.61-.63-1.48-.95-3.03-.95-4.66,0-1.03.12-2.11.37-3.24.25-1.13.65-2.21,1.2-3.24.55-1.03,1.27-1.89,2.17-2.59.5-.37,1.1-.58,1.79-.65.7-.07,1.33.25,1.89.95.4.5.57,1.08.52,1.74-.05.66-.27,1.21-.67,1.64-.73.57-1.31,1.32-1.74,2.27-.43.95-.65,2.04-.65,3.26,0,.5.06,1.04.17,1.62.12.58.37,1.09.75,1.52.38.43.99.65,1.82.65.76,0,1.37-.25,1.82-.75.45-.5.81-1.17,1.1-2.02.28-.85.56-1.75.82-2.72.27-1,.58-2.01.95-3.04.37-1.03.85-1.98,1.44-2.84.6-.86,1.37-1.56,2.32-2.09.95-.53,2.15-.8,3.61-.8,1.69,0,3.14.5,4.33,1.49,1.2,1,2.1,2.24,2.72,3.74.61,1.49.92,3.02.92,4.58,0,1.96-.34,3.92-1.02,5.88-.68,1.96-1.88,3.59-3.61,4.88Z"></path><path class="cls-1" d="M720.65,76.54c0-.86.29-1.58.87-2.14.58-.56,1.3-.85,2.17-.85h12.66c3.52,0,6.31.98,8.37,2.94,2.06,1.96,3.09,4.78,3.09,8.47s-1.03,6.5-3.09,8.45c-2.06,1.94-4.85,2.91-8.37,2.91h-12.66c-.86,0-1.59-.28-2.17-.85-.58-.56-.87-1.28-.87-2.14s.29-1.58.87-2.14c.58-.56,1.3-.85,2.17-.85h12.66c2.03,0,3.53-.45,4.51-1.35.98-.9,1.47-2.24,1.47-4.04s-.49-3.19-1.47-4.09c-.98-.9-2.48-1.35-4.51-1.35h-12.66c-.86,0-1.59-.28-2.17-.85-.58-.56-.87-1.28-.87-2.14Z"></path><path class="cls-1" d="M720.15,58.71c0-1.39.22-2.67.65-3.84.43-1.16.98-2.17,1.64-3.01.66-.85,1.34-1.51,2.02-1.99.68-.48,1.25-.72,1.72-.72l.65,1.3h-3.64c-.86,0-1.59-.28-2.17-.85-.58-.56-.87-1.28-.87-2.14s.28-1.58.85-2.14c.57-.56,1.3-.85,2.19-.85h22.17c2.89,0,5.21.62,6.95,1.87,1.74,1.25,3.01,2.88,3.79,4.91.78,2.03,1.17,4.2,1.17,6.53,0,.66-.08,1.53-.25,2.59-.17,1.06-.37,2.08-.6,3.04-.23.96-.45,1.69-.65,2.19-.43,1-.97,1.69-1.62,2.07-.65.38-1.34.46-2.07.22-.96-.3-1.62-.78-1.97-1.44-.35-.66-.39-1.36-.12-2.09.1-.33.3-.88.6-1.64.3-.76.57-1.6.82-2.52.25-.91.37-1.72.37-2.42,0-2.49-.5-4.33-1.49-5.53s-2.38-1.79-4.14-1.79h-4.33s.45-.6.45-.6c.43,0,.96.22,1.57.67.62.45,1.22,1.06,1.82,1.84.6.78,1.1,1.7,1.52,2.77.42,1.06.62,2.19.62,3.39,0,2.36-.59,4.48-1.77,6.38-1.18,1.89-2.81,3.39-4.88,4.48-2.08,1.1-4.46,1.64-7.15,1.64s-5.12-.55-7.2-1.64c-2.08-1.1-3.7-2.57-4.88-4.43-1.18-1.86-1.77-3.94-1.77-6.23ZM725.63,57.76c0,1.49.37,2.81,1.1,3.94.73,1.13,1.73,2.01,2.99,2.64,1.26.63,2.69.95,4.29.95s2.97-.32,4.24-.95c1.26-.63,2.26-1.51,2.99-2.64.73-1.13,1.1-2.44,1.1-3.94s-.37-2.86-1.1-3.99c-.73-1.13-1.73-2.01-2.99-2.64-1.26-.63-2.67-.95-4.24-.95s-3.02.32-4.29.95c-1.26.63-2.26,1.51-2.99,2.64-.73,1.13-1.1,2.46-1.1,3.99Z"></path><path class="cls-1" d="M720.15,26.67c0-2.39.52-4.21,1.54-5.46,1.03-1.25,2.4-2.1,4.11-2.57,1.71-.46,3.61-.7,5.71-.7h12.76c.86,0,1.59.28,2.17.85.58.57.87,1.28.87,2.14s-.29,1.58-.87,2.14c-.58.57-1.3.85-2.17.85h-12.76c-1.1,0-2.08.13-2.96.4-.88.27-1.59.75-2.12,1.44-.53.7-.8,1.69-.8,2.99s.27,2.34.8,3.24c.53.9,1.24,1.57,2.12,2.02.88.45,1.87.67,2.96.67h12.76c.86,0,1.59.28,2.17.85.58.57.87,1.28.87,2.14s-.29,1.58-.87,2.14c-.58.57-1.3.85-2.17.85h-30.79c-.86,0-1.59-.28-2.17-.85-.58-.56-.87-1.28-.87-2.14s.29-1.58.87-2.14c.58-.56,1.3-.85,2.17-.85h12.36s-.15.75-.15.75c-.56-.3-1.17-.71-1.82-1.25-.65-.53-1.25-1.18-1.82-1.94-.56-.76-1.02-1.61-1.37-2.54-.35-.93-.52-1.94-.52-3.04Z"></path></g></g></svg> 